<svg width="2055" height="518" viewBox="0 0 2055 518" fill="none" xmlns="http://www.w3.org/2000/svg">
<g clip-path="url(#clip0_336_88)">
<path d="M264.4 95.01C228.8 94.95 184.2 106.2 140.2 129.1C96.2699 152 61.4499 182 41.0099 211.3C20.5599 240.5 15.0299 267.7 25.0899 287.1C35.1599 306.4 60.6199 317.5 96.3099 317.5C132 317.6 176.6 306.3 220.5 283.5C264.5 260.6 299.3 230.5 319.7 201.3C340.2 172.1 345.6 144.9 335.6 125.5C325.5 106.2 300.1 95.01 264.4 95.01ZM356.3 165.3C352.8 180.6 345.2 196.3 334.5 211.6C311.9 243.9 275 275.4 228.8 299.4C182.6 323.5 135.7 335.6 96.2999 335.6C77.6999 335.6 60.4599 332.8 45.9299 326.9L56.5199 347.3C66.5999 366.7 91.9899 377.8 127.7 377.8C163.4 377.8 208 366.6 251.9 343.7C295.9 320.9 330.7 290.8 351.1 261.5C371.5 232.3 377.1 205.1 367 185.8L356.3 165.3ZM385.1 182.1C396.3 208.8 387.3 241.3 365.9 271.8C347 298.9 318.1 325.2 282.3 347.2C293.4 348.4 305 349 316.8 349C366.3 349 411.1 338.4 442.7 321.9C474.4 305.4 491.8 283.8 491.8 262C491.8 240.2 474.4 218.6 442.7 202.1C426.6 193.7 407 186.8 385.1 182.1ZM491.8 306.9C481.6 318.8 467.6 329.3 451.1 337.9C416.1 356.1 368.9 367 316.8 367C295.6 367 275.2 365.2 256.1 361.8C232.9 373.5 209.6 382.2 187.2 387.9C188.4 388.6 189.6 389.2 190.9 389.9C222.5 406.4 267.3 417 316.8 417C366.3 417 411.1 406.4 442.7 389.9C474.4 373.4 491.8 351.8 491.8 330V306.9Z" fill="#A96BBE"/>
</g>
<path d="M695.4 141.75V174.3H630.65V385H590.75V174.3H525.65V141.75H695.4ZM775.709 220.15C781.542 210.35 789.242 202.767 798.809 197.4C808.609 191.8 820.159 189 833.459 189V230.3H823.309C807.675 230.3 795.775 234.267 787.609 242.2C779.675 250.133 775.709 263.9 775.709 283.5V385H735.809V192.15H775.709V220.15ZM1044.78 192.15V385H1004.88V362.25C998.585 370.183 990.301 376.483 980.035 381.15C970.001 385.583 959.268 387.8 947.835 387.8C932.668 387.8 919.018 384.65 906.885 378.35C894.985 372.05 885.535 362.717 878.535 350.35C871.768 337.983 868.385 323.05 868.385 305.55V192.15H907.935V299.6C907.935 316.867 912.251 330.167 920.885 339.5C929.518 348.6 941.301 353.15 956.235 353.15C971.168 353.15 982.951 348.6 991.585 339.5C1000.45 330.167 1004.88 316.867 1004.88 299.6V192.15H1044.78ZM1167.43 388.15C1152.26 388.15 1138.61 385.467 1126.48 380.1C1114.58 374.5 1105.13 367.033 1098.13 357.7C1091.13 348.133 1087.4 337.517 1086.93 325.85H1128.23C1128.93 334.017 1132.78 340.9 1139.78 346.5C1147.01 351.867 1156 354.55 1166.73 354.55C1177.93 354.55 1186.56 352.45 1192.63 348.25C1198.93 343.817 1202.08 338.217 1202.08 331.45C1202.08 324.217 1198.58 318.85 1191.58 315.35C1184.81 311.85 1173.96 308 1159.03 303.8C1144.56 299.833 1132.78 295.983 1123.68 292.25C1114.58 288.517 1106.65 282.8 1099.88 275.1C1093.35 267.4 1090.08 257.25 1090.08 244.65C1090.08 234.383 1093.11 225.05 1099.18 216.65C1105.25 208.017 1113.88 201.25 1125.08 196.35C1136.51 191.45 1149.58 189 1164.28 189C1186.21 189 1203.83 194.6 1217.13 205.8C1230.66 216.767 1237.9 231.817 1238.83 250.95H1198.93C1198.23 242.317 1194.73 235.433 1188.43 230.3C1182.13 225.167 1173.61 222.6 1162.88 222.6C1152.38 222.6 1144.33 224.583 1138.73 228.55C1133.13 232.517 1130.33 237.767 1130.33 244.3C1130.33 249.433 1132.2 253.75 1135.93 257.25C1139.66 260.75 1144.21 263.55 1149.58 265.65C1154.95 267.517 1162.88 269.967 1173.38 273C1187.38 276.733 1198.81 280.583 1207.68 284.55C1216.78 288.283 1224.6 293.883 1231.13 301.35C1237.66 308.817 1241.05 318.733 1241.28 331.1C1241.28 342.067 1238.25 351.867 1232.18 360.5C1226.11 369.133 1217.48 375.9 1206.28 380.8C1195.31 385.7 1182.36 388.15 1167.43 388.15ZM1330.94 224.7V331.45C1330.94 338.683 1332.58 343.933 1335.84 347.2C1339.34 350.233 1345.18 351.75 1353.34 351.75H1377.84V385H1346.34C1328.38 385 1314.61 380.8 1305.04 372.4C1295.48 364 1290.69 350.35 1290.69 331.45V224.7H1267.94V192.15H1290.69V144.2H1330.94V192.15H1377.84V224.7H1330.94Z" fill="white"/>
<path d="M1750.65 144.25V391H1682.05V254.85L1635.5 391H1578.1L1531.2 253.8V391H1462.6V144.25H1545.55L1607.5 304.55L1668.05 144.25H1750.65ZM1977.3 290.55C1977.3 295.917 1976.95 301.283 1976.25 306.65H1846.4C1847.1 317.383 1850.02 325.433 1855.15 330.8C1860.52 335.933 1867.28 338.5 1875.45 338.5C1886.88 338.5 1895.05 333.367 1899.95 323.1H1973.1C1970.07 336.633 1964.12 348.767 1955.25 359.5C1946.62 370 1935.65 378.283 1922.35 384.35C1909.05 390.417 1894.35 393.45 1878.25 393.45C1858.88 393.45 1841.62 389.367 1826.45 381.2C1811.52 373.033 1799.73 361.367 1791.1 346.2C1782.7 331.033 1778.5 313.183 1778.5 292.65C1778.5 272.117 1782.7 254.383 1791.1 239.45C1799.5 224.283 1811.17 212.617 1826.1 204.45C1841.27 196.283 1858.65 192.2 1878.25 192.2C1897.62 192.2 1914.77 196.167 1929.7 204.1C1944.63 212.033 1956.3 223.467 1964.7 238.4C1973.1 253.1 1977.3 270.483 1977.3 290.55ZM1907.3 273.4C1907.3 265 1904.5 258.467 1898.9 253.8C1893.3 248.9 1886.3 246.45 1877.9 246.45C1869.5 246.45 1862.62 248.783 1857.25 253.45C1851.88 257.883 1848.38 264.533 1846.75 273.4H1907.3Z" fill="#02CAE5"/>
<defs>
<clipPath id="clip0_336_88">
<rect width="512" height="512" fill="white"/>
</clipPath>
</defs>
</svg>
