<?xml version="1.0" ?>
<!-- Uploaded to: SVG Repo, www.svgrepo.com, Generator: SVG Repo Mixer Tools -->
<svg width="800px" height="800px" viewBox="0 0 64 64" id="Layer_1" version="1.1" xml:space="preserve" xmlns="http://www.w3.org/2000/svg" xmlns:xlink="http://www.w3.org/1999/xlink">
<style type="text/css">
	.st0{fill:none;stroke:#126BB5;stroke-width:2;stroke-linecap:round;stroke-linejoin:round;stroke-miterlimit:10;}
	.st1{fill:none;stroke:#00B1E4;stroke-width:2;stroke-linecap:round;stroke-linejoin:round;stroke-miterlimit:10;}
	.st2{fill:none;stroke:#00B1E4;stroke-width:2;stroke-linejoin:round;stroke-miterlimit:10;}
	.st3{fill:#FFFFFF;stroke:#00B1E4;stroke-width:2;stroke-linecap:round;stroke-linejoin:round;stroke-miterlimit:10;}
	.st4{fill:#00B1E4;}
	.st5{fill:none;stroke:#126BB5;stroke-width:2;stroke-miterlimit:10;}
	.st6{fill:none;stroke:#00B1E4;stroke-width:2;stroke-miterlimit:10;}
	.st7{fill:none;stroke:#2B3088;stroke-width:2;stroke-linejoin:round;stroke-miterlimit:10;}
	.st8{fill:none;stroke:#126BB5;stroke-width:2;stroke-linecap:round;stroke-miterlimit:10;}
	.st9{fill:none;stroke:#00B1E4;stroke-width:2;stroke-linecap:round;stroke-miterlimit:10;}
</style>
<line class="st1" x1="52" x2="17" y1="35" y2="35"/>
<polygon class="st1" points="38,52 26,52 28,40 36,40 "/>
<g>
<path class="st0" d="M36,40H15c-1.6,0-3-1.3-3-3V15c0-1.6,1.4-3,3-3h34c1.7,0,3,1.4,3,3v22c0,1.7-1.3,3-3,3h-8.4"/>
</g>
<line class="st0" x1="18" x2="46" y1="52" y2="52"/>
<rect class="st1" height="8" width="10" x="27" y="22"/>
<path class="st1" d="M35,22h-6v-2c0-1.7,1.3-3,3-3h0c1.7,0,3,1.3,3,3V22z"/>
<line class="st1" x1="32" x2="32" y1="26" y2="26"/>
</svg>